<svg viewBox="0 0 1024 1024" version="1.1"
    xmlns="http://www.w3.org/2000/svg" xmlns:xlink="http://www.w3.org/1999/xlink"
    width="16" height="16">
    <path
        d="M442.496 699.712H285.824v21.376h156.672v-21.376z m221.12-475.584c-3.52-0.832-7.104-1.92-10.624-2.56a92.032 92.032 0 0 1-11.776-3.84c3.84 1.664 7.872 2.752 11.776 3.84 3.52 0.64 7.04 1.92 10.624 2.56z"
        fill="#E12319" p-id="11885"></path>
    <path
        d="M767.232 83.392H213.12c-78.72 0-142.528 63.808-142.528 142.528v554.112c0 78.72 63.808 142.464 142.528 142.464h554.112c78.72 0 142.464-63.808 142.464-142.464V225.92c0-78.72-63.808-142.528-142.464-142.528zM228.032 323.328c1.792-4.8 3.264-9.6 5.44-14.208a81.28 81.28 0 0 1 10.432-16.192c10.24-12.416 17.216-26.624 23.04-41.536 3.456-8.384 7.168-16.64 10.56-25.216 3.84-9.664 12.416-11.392 20.992-8.768 4.224 1.28 8 3.584 11.328 6.4 6.4 5.376 13.696 9.6 20.672 14.272 1.216 0.832 2.112 1.28 3.392-0.192 13.44-14.464 30.08-24.192 47.936-32a451.264 451.264 0 0 1 109.696-32 438.4 438.4 0 0 1 92.992-4.608l1.792-0.064c1.792-1.728 3.392-1.024 5.12 0.192a7.36 7.36 0 0 0 3.584 0.32c0.768-0.704 1.472-0.704 2.176 0.192l13.12 1.28c0.768-0.64 1.472-0.64 2.112 0.192l4.352 0.512c0.64-0.64 1.024-0.512 1.408 0.192 0.896 0.384 1.92 0.64 2.944 0.384 1.152-0.96 2.176-0.64 3.072 0.512 7.296 1.6 14.72 3.008 22.016 4.8 19.84 4.928 39.04 11.52 55.424 24.704a40.64 40.64 0 0 1 15.488 40.96 192.384 192.384 0 0 1-23.04 64c-1.408 2.56-3.84 3.84-5.568 5.952 0.768 3.84-3.008 5.76-3.904 8.96-0.832 2.752-3.2 4.48-4.928 6.528-0.064 0.384-0.192 0.896-0.768 0.64 0 0.448 0.192 1.28-0.704 0.64 0.64 1.6-1.024 2.304-1.728 3.2a194.176 194.176 0 0 1-37.12 35.84 213.888 213.888 0 0 1-96.576 41.152c-8.768 1.536-17.664 0-26.496-0.96a217.92 217.92 0 0 1-19.456-2.816c-1.28-0.192-2.624-1.216-3.84 0.128l-0.512 0.256c-0.64-4.608-4.8-2.688-7.04-3.2-20.352-4.672-38.912-13.568-57.024-23.488-23.488-12.992-46.336-27.072-65.92-45.888-15.104-14.528-28.288-30.4-36.48-49.984a52.096 52.096 0 0 1-3.712-12.16c-0.384-3.072-1.6-4.864-4.672-5.76 0.576 6.784 0.96 13.632 0.384 20.288-2.112 27.136-15.232 46.208-41.088 55.616-8.64 3.072-16.896 7.04-26.304 8-12.544 1.28-28.224-12.16-22.592-27.072z m68.096 473.344c-6.208 11.136-14.912 20.928-22.528 31.232-6.08 8.192-14.08 10.816-25.408 7.424 3.584-6.4 7.808-12.16 10.24-18.56 6.848-18.24 13.44-36.8 19.264-55.488 1.92-5.952 3.52-9.152 10.304-8.768 8.192 0.512 16.384 0.064 28.288 0.064-7.36 16.512-12.672 30.912-20.16 44.16z m84.16-8c-0.512 32.832-19.2 49.6-53.376 47.36v-13.952c19.968-7.04 20.992-8.576 20.992-30.592v-51.392H254.72v-57.728h218.496v57.024H380.288v35.84c0 4.352 0.128 8.96 0 13.44z m75.712 40.64a177.92 177.92 0 0 1-41.92-76.16h31.36l32 82.816c-7.232 2.048-14.464 0.832-21.44-6.656z m25.216-162.56H246.912v-16.576H347.52c0.512-4.8 0.768-8.448 1.28-12.992h30.784l2.048 13.248h75.072l11.392-0.128c14.784-0.192 14.912-0.128 13.12 16.384z m26.688-172.544c-4.416 9.6-6.784 19.968-9.792 30.08-0.704 2.304-1.536 3.52-4.096 3.392-3.008 0-6.912 1.792-8.832 0.128-1.984-1.792-0.192-5.76 0-8.576 0.896-11.52 1.408-23.04 0.704-34.816a27.648 27.648 0 0 0-9.6 5.888c-10.88 9.088-19.84 19.968-30.08 29.696-1.728 1.6-3.392 3.072-4.928 4.928-2.176 2.752-5.12 3.072-8.32 3.392-2.944 0.256-3.584-0.64-2.048-3.328 5.504-9.216 10.816-18.496 16.192-27.712 2.88-4.992 5.696-10.24 8.896-15.104 1.6-2.496 0.512-2.944-1.472-3.456a26.88 26.88 0 0 1-10.048-4.992 23.04 23.04 0 0 1-7.296-25.152c1.088 3.84 2.432 7.296 4.736 10.304 7.04 9.6 17.472 7.936 25.088 3.648 0.896-0.512 1.408-1.6 1.984-2.624 8.96-14.976 17.92-30.016 26.816-45.12 1.408-2.368 2.688-2.88 5.504-2.368 11.968 2.176 24 3.968 36.16 2.496a43.904 43.904 0 0 0 17.28-5.312v6.016c-0.32 36.16-0.64 72.512-0.768 108.672 0 3.392-0.96 4.032-4.096 3.712-7.616-0.64-7.488-0.64-9.408-8.128-2.176-8.32-3.264-17.152-6.4-25.344a34.688 34.688 0 0 0-6.848-11.904c-4.352-4.352-7.552-4.352-11.904 0a38.784 38.784 0 0 0-7.424 11.52z m31.36 339.008c-3.968 3.456-11.52 2.88-18.496 4.416 8.256-18.624 15.744-35.008 22.656-51.648a55.232 55.232 0 0 0 5.376-19.584c0.192-12.672 6.784-14.976 17.472-13.888 6.208 0.64 12.608 0.064 20.48 0.064-9.6 32.32-23.68 59.52-47.424 80.64z m187.84-4.8a177.792 177.792 0 0 1-40.96-74.112c2.176-0.896 2.432-1.088 2.88-1.088 29.76-3.008 29.44-2.944 37.568 25.28 2.88 10.24 6.784 20.096 11.136 29.824 4.096 9.152 9.344 17.92 14.272 27.2-10.24 2.688-17.792 0.64-24.96-7.104z m26.368-161.408c-3.456 0.192-7.488 0.64-11.52 0.64-45.824 0-91.84 0.256-137.728-0.128-8.832-0.128-13.824 2.176-17.152 10.752-5.44 14.08-12.352 27.52-19.776 43.648 17.92 0 33.92 0.256 49.984-0.448 1.792-0.064 4.736-5.12 4.928-8 0.64-9.664 0.192-19.456 0.192-30.08h31.68v38.336h90.688v17.792h-90.496c0 17.408 0.128 33.152 0 48.96-0.192 32.832-18.56 49.6-52.672 47.808-2.56-8.704-3.328-15.296 8.768-18.176 4.48-1.088 10.432-8 10.624-12.608 1.088-21.376 0.512-43.008 0.512-65.92H526.4l33.024-71.808h-40.704v-17.472c13.568 0 27.2 0.192 40.768-0.128 3.2-0.064 8.384-0.768 9.088-2.56 7.68-19.392 23.552-8.512 37.312-11.904l-4.672 14.016h152.192l0.064 17.28z"
        fill="#E12319" p-id="11886"></path>
    <path
        d="M678.016 329.792c0.768 1.792-0.896 2.432-1.6 3.392a194.176 194.176 0 0 1-37.248 35.84 213.888 213.888 0 0 1-96.448 41.152c-8.832 1.536-17.728 0-26.496-0.96a217.92 217.92 0 0 1-19.52-2.816c-1.216-0.192-2.56-1.216-3.84 0.128l-0.448 0.256c-0.704-4.608-4.8-2.688-7.104-3.2-20.288-4.672-38.912-13.568-56.96-23.488-23.552-12.992-46.336-27.072-65.92-45.888-15.104-14.528-28.352-30.4-36.48-49.984a52.096 52.096 0 0 1-3.776-12.224c-0.384-3.008-1.6-4.8-4.672-5.76 0.64 6.848 1.024 13.632 0.384 20.352-2.112 27.136-15.168 46.208-41.088 55.616-8.576 3.072-16.896 7.04-26.24 8-12.544 1.216-28.16-12.16-22.592-27.136 1.856-4.8 3.328-9.6 5.504-14.144a81.28 81.28 0 0 1 10.432-16.256c10.24-12.352 17.216-26.56 23.04-41.472 3.456-8.384 7.168-16.64 10.56-25.216 3.84-9.664 12.416-11.392 20.992-8.768 4.224 1.28 8 3.584 11.328 6.4 6.4 5.376 13.696 9.6 20.672 14.272 1.216 0.832 2.112 1.216 3.392-0.192 13.44-14.528 30.08-24.192 47.936-32a451.264 451.264 0 0 1 109.696-32 438.4 438.4 0 0 1 92.992-4.608l1.792-0.064 5.12 0.192a7.36 7.36 0 0 0 3.584 0.256l2.176 0.256 13.12 1.28 2.112 0.192 4.352 0.512c0.512 0.064 1.024 0.064 1.408 0.192 0.896 0.384 1.92 0.64 2.944 0.384l3.072 0.512c7.296 1.6 14.72 3.008 22.016 4.8 19.84 4.928 39.04 11.52 55.424 24.704a40.64 40.64 0 0 1 15.488 40.896 192.384 192.384 0 0 1-23.04 64.128c-1.408 2.496-3.84 3.776-5.568 5.888-1.536 0.512-3.008 0.768-4.416 1.472a91.968 91.968 0 0 1-23.872 7.424 188.672 188.672 0 0 1-92.8-7.232 141.376 141.376 0 0 1-69.056-51.392c-1.792-2.496-5.12-3.392-7.296-1.984-1.92 1.28-2.88 6.4-1.28 8.576 5.632 7.936 12.032 15.36 18.88 22.144 24.128 23.488 53.632 36.16 86.336 41.984 20.672 3.712 41.6 3.584 62.4 0.64 7.04-0.96 13.824-3.072 20.608-5.056z m-24.96-110.72c6.272 0.32 12.416 1.536 18.816 0.896a43.52 43.52 0 0 0 22.72-6.848c4.416-3.2 4.992-8.192 1.6-12.416a16.384 16.384 0 0 0-4.672-4.032 60.416 60.416 0 0 0-22.016-7.744 102.912 102.912 0 0 0-24.192-0.64 48.128 48.128 0 0 0-18.432 4.736c-4.288 2.368-8.192 5.76-8.192 10.752 0 5.312 4.8 7.808 9.088 9.92 7.936 3.904 16.64 4.48 25.216 5.376z m-161.92-0.384c-0.768 6.72 5.12 13.44 12.032 14.208 6.208 0.704 14.656-5.376 15.36-11.072 0.768-6.144-5.632-13.44-12.352-14.08-8-0.64-14.272 3.968-15.104 10.944z"
        fill="#EEEEEE" p-id="11887"></path>
    <path
        d="M437.184 448.64c1.088 3.84 2.432 7.36 4.736 10.368 7.04 9.6 17.472 7.872 25.088 3.584 0.896-0.512 1.408-1.6 1.984-2.56l26.816-45.12c1.408-2.432 2.688-2.88 5.504-2.432 11.968 2.24 24 4.032 36.16 2.56a43.904 43.904 0 0 0 17.28-5.312v5.952c-0.32 36.224-0.64 72.512-0.768 108.736 0 3.392-0.96 3.968-4.096 3.712-7.616-0.704-7.488-0.64-9.408-8.128-2.176-8.384-3.264-17.216-6.4-25.408a34.688 34.688 0 0 0-6.848-11.904c-4.352-4.288-7.552-4.288-11.904 0a38.144 38.144 0 0 0-7.232 11.328c-4.416 9.6-6.784 19.968-9.792 30.08-0.704 2.304-1.472 3.52-4.096 3.392-3.008 0-6.912 1.792-8.832 0.128-1.92-1.792-0.192-5.76 0-8.64 0.896-11.52 1.408-22.976 0.704-34.752a27.648 27.648 0 0 0-9.6 5.888c-10.88 9.088-19.84 19.968-30.08 29.696-1.728 1.6-3.392 3.072-4.928 4.864-2.176 2.816-5.12 3.136-8.32 3.456-2.944 0.256-3.52-0.64-2.048-3.328 5.504-9.216 10.816-18.56 16.192-27.712 2.88-4.992 5.76-10.24 8.96-15.104 1.536-2.496 0.448-3.008-1.536-3.456a26.88 26.88 0 0 1-10.048-5.056 22.4 22.4 0 0 1-7.488-24.768z"
        fill="#EEEEEE" p-id="11888"></path>
    <path
        d="M678.016 329.792a145.216 145.216 0 0 1-20.736 4.992 197.888 197.888 0 0 1-62.4-0.64c-32.64-5.824-62.08-18.56-86.272-42.048a153.216 153.216 0 0 1-18.88-22.08c-1.6-2.24-0.704-7.232 1.28-8.64 2.176-1.344 5.504-0.448 7.296 2.048 17.92 24 40.512 41.792 68.992 51.392 30.208 10.24 61.312 12.416 92.8 7.168 8.32-1.408 16.32-3.84 23.872-7.36 1.408-0.64 2.944-1.024 4.48-1.536 0.768 3.904-3.072 5.76-3.968 8.96-0.768 2.752-3.2 4.48-4.864 6.528-0.512-0.064-0.832 0.128-0.832 0.64l0.128-0.128c-0.64 0.128-1.088 0.128-0.896 0.704zM592.576 174.72c-2.112-0.512-4.224-0.512-6.4-1.024 2.304-8.96 4.416-5.248 6.4 1.024z m34.944 3.584c-2.112-1.216-4.352-1.856-6.4-3.072 2.432-5.568 4.48-3.712 6.4 3.072z m-26.24-3.84c-2.048-0.64-4.032-0.64-6.4-1.28 2.368-4.48 4.672-3.84 6.4 1.28z m15.36 1.472c-2.048-0.64-4.224-0.64-6.4-1.28 2.176-4.48 4.352-3.84 6.4 1.28z m6.592 0.512c-2.304-0.64-4.608-0.64-6.4-1.28 2.24-3.84 4.48-3.2 6.4 1.28z"
        fill="#282526" p-id="11889"></path>
    <path d="M679.232 333.376c0.64-3.2 2.56-3.84 5.12-3.84-0.64 2.56-0.64 5.76-5.12 3.84z"
        fill="#EEEEEE" p-id="11890"></path>
    <path d="M678.208 333.44c-0.64-4.224 2.56-4.224 5.76-4.224-0.64 3.072 1.92 9.792-5.76 4.288z"
        fill="#EEEEEE" p-id="11891"></path>
    <path
        d="M652.992 219.072c-8.576-0.896-17.216-1.6-25.216-5.248-4.352-2.112-9.088-4.608-9.088-9.92 0-4.992 3.904-8.512 8.192-10.816a48.128 48.128 0 0 1 18.432-4.672c8.192-0.896 16.192-0.384 24.192 0.64a62.336 62.336 0 0 1 22.016 7.744 16.384 16.384 0 0 1 4.672 4.032c3.392 4.16 2.816 9.152-1.6 12.352-6.784 4.928-14.592 6.144-22.72 6.912-6.4 0.64-12.544-0.64-18.88-1.024z"
        fill="#282526" p-id="11892"></path>
    <path
        d="M491.072 218.688c0.832-7.04 7.104-11.584 15.232-10.88 6.72 0.64 12.992 7.872 12.288 14.016-0.64 5.568-9.088 11.648-15.296 11.072-7.04-0.64-12.928-7.488-12.16-14.208z"
        fill="#444243" p-id="11893"></path>
    <path
        d="M559.616 667.776h-40.704v-17.472c13.568 0 27.2 0.192 40.768-0.128 3.2-0.064 8.448-0.768 9.152-2.56 7.68-19.392 23.488-8.512 37.248-11.904l-4.672 14.016h152.192v17.28c-3.52 0.192-7.488 0.64-11.52 0.64-45.888 0-91.904 0.256-137.792-0.128-8.768-0.128-13.76 2.176-17.088 10.752-5.504 14.08-12.416 27.52-19.84 43.648 17.92 0 33.92 0.256 50.048-0.448 1.792-0.064 4.672-5.12 4.864-8 0.64-9.664 0.256-19.456 0.256-30.08h31.68v38.336h90.688v17.792h-90.496c0 17.408 0.128 33.152 0 48.96-0.192 32.832-18.56 49.6-52.672 47.808-2.56-8.704-3.328-15.296 8.768-18.176 4.48-1.088 10.432-8 10.624-12.608 1.088-21.376 0.512-43.008 0.512-65.92H526.464l33.088-71.808z m-232.704 168.256v-13.952c19.968-7.04 20.992-8.576 20.992-30.592v-51.392H254.72v-57.728h218.496v57.024H380.288v49.536c-0.512 32.576-19.072 49.472-53.376 47.104z m-41.088-114.944h156.672v-21.376H285.824v21.376z m-39.04-54.4v-16.512h100.608l1.28-12.992h30.848l1.92 13.248h75.136l11.392-0.128c15.04-0.128 15.04 0 13.248 16.512-77.696-0.128-155.52-0.128-234.432-0.128z"
        fill="#FFFFFF" p-id="11894"></path>
    <path
        d="M686.208 754.176c2.112-0.896 2.368-1.088 2.816-1.088 29.76-3.008 29.44-2.88 37.568 25.344 2.88 10.176 6.784 20.096 11.136 29.76 4.096 9.216 9.344 17.92 14.272 27.2-10.24 2.816-17.792 0.704-24.96-7.04a177.088 177.088 0 0 1-40.832-74.176z m-272.128-1.088h31.36c10.944 28.16 21.44 55.488 32 82.944-7.168 2.048-14.464 0.768-21.312-6.656a178.432 178.432 0 0 1-42.048-76.288z m-97.664-0.512c-7.424 16.512-12.8 30.912-20.288 44.224-6.208 11.072-14.912 20.928-22.528 31.232-6.08 8.192-14.08 10.752-25.408 7.36 3.584-6.4 7.808-12.096 10.24-18.496 6.848-18.304 13.44-36.8 19.264-55.488 1.92-6.016 3.52-9.216 10.304-8.832 8.192 0.448 16.384 0 28.416 0z m270.208-0.064c-9.408 32.384-23.552 59.52-47.424 80.64-4.032 3.456-11.584 2.816-18.56 4.352 8.32-18.56 15.744-35.008 22.656-51.584a55.232 55.232 0 0 0 5.376-19.648c0.256-12.672 6.848-14.976 17.536-13.888 6.208 0.64 12.608 0.128 20.416 0.128z"
        fill="#FFFFFF" p-id="11895"></path>
</svg>